<?xml version="1.0" encoding="UTF-8"?><svg id="b" xmlns="http://www.w3.org/2000/svg" viewBox="0 0 1045.28 331.28"><g id="c"><g><path d="m189.11,307.57c7.43-2.62,12.64-9.95,12.57-17.87,0-3.3-.82-6.33-2.29-9.05-1.25-2.57-.23-6.01,2.09-7.51,13.72-9.58,22.24-25,22.3-42.62-.02,11.23-14.46,15.79-20.97,6.85h0c-3.35-4.38-2.08-10.48-1.81-15.58.84-10,3.76-19.12,7.35-28.2,5.46-17,2.16-36.91-8.46-51.15,4.27,16.61-10.55,32.37-27.27,29.86-25.23-2.2-41.16-29.46-31.02-52.42h0c.91-2.21,2.1-4.24,3.39-6.22,10.71-16.62,12.34-40.07,3.97-58.2-2.81-6.3-6.61-12.04-11.25-17.04-8.97-9.91-13.88-24.32-12.27-38.4-8.86,14.43-9.75,34.88-2.18,50.03,1.86,3.49,3.34,7.14,4.11,11.05,2.37,10.71-.34,22.79-6.61,31.25-15.19,21.95-49.44,7.89-44.51-18.61-7.78,10.58-9.64,26.38-4.24,38.74,1.03,2.53,2.68,4.81,3.71,7.37,3.56,7.77,5.18,17.08,4.3,25.96-.24,2.85-.74,5.66-1.48,8.39-.05.26-.14.53-.2.8-.07.01-.12.04-.19.07-9.01,18.84-37.08,15.49-41.17-5.25-2.98-15.95-15.65-28.6-31.65-31.5,10.68,6.48,16.63,20.68,13.16,33.29-2.5,9.98-3.84,20.42-3.83,31.17,0,3.75.15,7.43.48,11.12.9,10.44,3.05,20.5,6.3,30.06,2.22,4.64,2.33,10.54-1.41,14.33h0c-3.96,4.46-11.32,4.99-15.84,1.11h-.01c-1.11-.95-2.1-2.1-2.78-3.4-.27-.49-.51-1.01-.69-1.53-.46-1.24-.69-2.53-.7-3.9,0,17.72,8.89,33.33,22.44,42.7,2.33,1.63,3.16,5.24,1.71,7.76-5.34,9.77-.03,22.96,10.24,26.48,11.69-15.03,36.19-9.34,40.06,9.36,0,.04,0,.07.01.1.75,4.84,4.28,8.83,8.94,10.31h.06c3.54-8.44,16.16-5.6,15.7,3.56,1.37.18,2.75.34,4.14.45-.7-12.04,16.94-12.04,16.22,0,1.87-.15,3.73-.38,5.56-.65-.31-8.8,11.82-11.69,15.53-3.74.01,0,.03-.01.04-.01,3.72-1.26,6.61-4.25,7.76-7.99.94-3.07,1.54-6.33,3.3-8.98,7.79-13.53,27.94-14.85,37.39-2.33Zm-161.66-31.13c-.03-.06-.05-.11-.06-.17.05.01.11.04.14.07-.02.02-.05.05-.08.09Zm44.65-6.07c-37.64,0-19.15-41.63-41.64-41.63,5.25-3.79,20.19-3.37,28.6,6.52,8.4,9.87,46.88,34.7,46.88,13.67,0,0,3.79,21.45-33.84,21.45Zm44.46,30.12s-1.53-8.36-5.18-8.36-5.19,8.36-5.19,8.36c0,0-7.55-.45-7.55-9.61s8.7-21.8,8.7-21.8c.35,2.37,1.92,3.61,4.04,3.61s3.68-1.24,4.02-3.61c0,0,8.7,12.66,8.7,21.8s-7.54,9.61-7.54,9.61Zm35.12-30.12c-37.64,0-33.86-21.45-33.86-21.45,0,21.03,38.48-3.79,46.89-13.67,8.41-9.89,23.34-10.31,28.6-6.52-22.51,0-4,41.63-41.64,41.63Z" style="fill:#fff;"/><g><polygon points="334.43 217.53 334.43 197.42 392.94 197.42 401.68 175.17 307.69 175.17 307.69 274.57 334.43 274.57 334.43 237.29 377.28 237.29 385.04 217.53 334.43 217.53" style="fill:#fff;"/><path d="m420.4,175.17l-18.18,47.72-5.49,14.4-14.2,37.28h27.57l5.56-15.51h46.86l5.56,15.51h27.57l-37.87-99.4h-37.39Zm2.36,63.89l13.96-38.81h4.85l13.85,38.81h-32.66Z" style="fill:#fff;"/><polygon points="583.83 237.65 581.46 237.65 539.69 175.17 508.81 175.17 508.81 274.57 534.84 274.57 534.84 212.09 537.32 212.09 579.68 274.57 609.86 274.57 609.86 175.17 583.83 175.17 583.83 237.65" style="fill:#fff;"/><polygon points="626.55 274.57 653.31 274.57 653.31 237.29 709.04 237.29 709.04 217.53 653.31 217.53 653.31 197.42 712.11 197.42 712.11 175.17 626.55 175.17 626.55 274.57" style="fill:#fff;"/><path d="m799.2,231.85c0,14.67-7.33,23.55-22.47,23.55s-22.26-8.87-22.26-23.55v-56.68h-26.85v57.38c0,30.89,17.28,45.32,49.11,45.32s49.11-14.43,49.11-45.43v-57.27h-26.63v56.68Z" style="fill:#fff;"/><path d="m937.9,211.5c0-24.15-14.67-36.33-41.54-36.33h-53.83v99.4h26.74v-28.29h29.7l15.26,28.29h26.39l-18.81-33.72c9.57-5.68,16.08-15.63,16.08-29.35Zm-43.19,14.55h-25.44v-28.63h25.44c10.77,0,16.57,4.97,16.57,14.31s-5.8,14.32-16.57,14.32Z" style="fill:#fff;"/><polygon points="1017.11 175.17 992.26 217.29 989.78 217.29 965.05 175.17 936.76 175.17 977.71 242.97 977.71 274.57 1004.33 274.57 1004.33 243.09 1045.28 175.17 1017.11 175.17" style="fill:#fff;"/></g></g></g></svg>