<?xml version="1.0" encoding="utf-8"?>
<!-- Generator: Adobe Illustrator 27.2.0, SVG Export Plug-In . SVG Version: 6.00 Build 0)  -->
<svg version="1.1" id="Layer_1" xmlns="http://www.w3.org/2000/svg" xmlns:xlink="http://www.w3.org/1999/xlink" x="0px" y="0px"
	 viewBox="0 0 57 28" style="enable-background:new 0 0 57 28;" xml:space="preserve">
<style type="text/css">
	.st0{fill:#FFFFFF;}
</style>
<g id="c">
	<g>
		<path class="st0" d="M10,20.6c0.4-0.1,0.7-0.5,0.7-1c0-0.2,0-0.3-0.1-0.5c-0.1-0.1,0-0.3,0.1-0.4c0.7-0.5,1.2-1.4,1.2-2.3
			c0,0.6-0.8,0.9-1.1,0.4l0,0c-0.2-0.2-0.1-0.6-0.1-0.8c0-0.5,0.2-1,0.4-1.5c0.3-0.9,0.1-2-0.5-2.8c0.2,0.9-0.6,1.8-1.5,1.6
			c-1.4-0.1-2.2-1.6-1.7-2.8l0,0c0-0.1,0.1-0.2,0.2-0.3c0.6-0.9,0.7-2.2,0.2-3.2C7.7,6.6,7.5,6.3,7.2,6C6.7,5.5,6.5,4.7,6.6,3.9
			C6.1,4.7,6,5.8,6.4,6.6C6.5,6.8,6.6,7,6.7,7.2c0.1,0.6,0,1.2-0.4,1.7c-0.8,1.2-2.7,0.4-2.4-1C3.5,8.5,3.4,9.3,3.7,10
			c0.1,0.1,0.1,0.3,0.2,0.4c0.2,0.4,0.3,0.9,0.2,1.4c0,0.2,0,0.3-0.1,0.5c0,0,0,0,0,0c0,0,0,0,0,0c-0.5,1-2,0.8-2.2-0.3
			c-0.2-0.9-0.8-1.5-1.7-1.7c0.6,0.4,0.9,1.1,0.7,1.8c-0.1,0.5-0.2,1.1-0.2,1.7c0,0.2,0,0.4,0,0.6c0,0.6,0.2,1.1,0.3,1.6
			c0.1,0.3,0.1,0.6-0.1,0.8l0,0c-0.2,0.2-0.6,0.3-0.9,0.1h0c-0.1-0.1-0.1-0.1-0.2-0.2c0,0,0-0.1,0-0.1c0-0.1,0-0.1,0-0.2
			c0,1,0.5,1.8,1.2,2.3c0.1,0.1,0.2,0.3,0.1,0.4c-0.3,0.5,0,1.2,0.6,1.4c0.6-0.8,2-0.5,2.2,0.5c0,0,0,0,0,0c0,0.3,0.2,0.5,0.5,0.6h0
			c0.2-0.5,0.9-0.3,0.9,0.2c0.1,0,0.1,0,0.2,0c0-0.7,0.9-0.7,0.9,0c0.1,0,0.2,0,0.3,0c0-0.5,0.6-0.6,0.8-0.2c0,0,0,0,0,0
			c0.2-0.1,0.4-0.2,0.4-0.4C7.9,21,7.9,20.8,8,20.7C8.4,20,9.5,19.9,10,20.6L10,20.6z M1.3,18.9C1.3,18.9,1.3,18.9,1.3,18.9
			C1.3,18.9,1.3,18.9,1.3,18.9C1.3,18.9,1.3,18.9,1.3,18.9L1.3,18.9z M3.7,18.6c-2,0-1-2.3-2.3-2.3c0.3-0.2,1.1-0.2,1.5,0.4
			c0.5,0.5,2.5,1.9,2.5,0.7C5.5,17.4,5.7,18.6,3.7,18.6L3.7,18.6z M6.1,20.2c0,0-0.1-0.5-0.3-0.5c-0.2,0-0.3,0.5-0.3,0.5
			s-0.4,0-0.4-0.5s0.5-1.2,0.5-1.2c0,0.1,0.1,0.2,0.2,0.2c0.1,0,0.2-0.1,0.2-0.2c0,0,0.5,0.7,0.5,1.2C6.5,20.2,6.1,20.2,6.1,20.2
			L6.1,20.2z M8,18.6c-2,0-1.8-1.2-1.8-1.2c0,1.1,2.1-0.2,2.5-0.7c0.5-0.5,1.3-0.6,1.5-0.4C9,16.3,10,18.6,8,18.6L8,18.6z"/>
		<g>
			<polygon class="st0" points="17.9,15.7 17.9,14.6 21,14.6 21.5,13.4 16.4,13.4 16.4,18.8 17.9,18.8 17.9,16.8 20.2,16.8 
				20.6,15.7 			"/>
			<path class="st0" d="M22.5,13.4l-1,2.6l-0.3,0.8l-0.8,2H22l0.3-0.8h2.5l0.3,0.8h1.5l-2.1-5.4L22.5,13.4L22.5,13.4z M22.7,16.9
				l0.8-2.1h0.3l0.8,2.1H22.7z"/>
			<polygon class="st0" points="31.4,16.8 31.3,16.8 29,13.4 27.3,13.4 27.3,18.8 28.7,18.8 28.7,15.4 28.9,15.4 31.2,18.8 
				32.8,18.8 32.8,13.4 31.4,13.4 			"/>
			<polygon class="st0" points="33.7,18.8 35.2,18.8 35.2,16.8 38.2,16.8 38.2,15.7 35.2,15.7 35.2,14.6 38.3,14.6 38.3,13.4 
				33.7,13.4 			"/>
			<path class="st0" d="M43.1,16.5c0,0.8-0.4,1.3-1.2,1.3c-0.8,0-1.2-0.5-1.2-1.3v-3.1h-1.5v3.1c0,1.7,0.9,2.5,2.7,2.5
				c1.7,0,2.7-0.8,2.7-2.5v-3.1h-1.4L43.1,16.5L43.1,16.5z"/>
			<path class="st0" d="M50.6,15.4c0-1.3-0.8-2-2.2-2h-2.9v5.4h1.4v-1.5h1.6l0.8,1.5h1.4l-1-1.8C50.2,16.6,50.6,16.1,50.6,15.4
				L50.6,15.4z M48.2,16.2h-1.4v-1.6h1.4c0.6,0,0.9,0.3,0.9,0.8S48.8,16.2,48.2,16.2L48.2,16.2z"/>
			<polygon class="st0" points="54.9,13.4 53.5,15.7 53.4,15.7 52,13.4 50.5,13.4 52.7,17.1 52.7,18.8 54.2,18.8 54.2,17.1 
				56.4,13.4 			"/>
		</g>
	</g>
</g>
</svg>
