<?xml version="1.0" encoding="UTF-8"?><svg id="b" xmlns="http://www.w3.org/2000/svg" viewBox="0 0 282.14 92.7"><g id="c"><g id="d"><g><path d="m58.52,50.69v14.65H0v-11.58L32.94,14.65H.83V0h56.29v11.58L24.17,50.69h34.35Z" style="fill:#fff;"/><path d="m104.91,66.65c-9.71,0-17.26-2.65-22.65-7.94-5.38-5.29-8.06-12.79-8.06-22.5V0h18.48v35.65c0,10.46,4.14,15.69,12.42,15.69s12.31-5.23,12.31-15.69V0h18.21v36.21c0,9.71-2.7,17.21-8.08,22.5-5.38,5.29-12.92,7.94-22.63,7.94Z" style="fill:#fff;"/><path d="m156.24,0h18.48v50.69h31.17v14.65h-49.65V0Z" style="fill:#fff;"/><path d="m251.43,66.65c-9.71,0-17.26-2.65-22.65-7.94-5.38-5.29-8.06-12.79-8.06-22.5V0h18.48v35.65c0,10.46,4.14,15.69,12.42,15.69s12.31-5.23,12.31-15.69V0h18.21v36.21c0,9.71-2.7,17.21-8.08,22.5-5.38,5.29-12.92,7.94-22.63,7.94Z" style="fill:#fff;"/><path d="m8.31,92.7c-.78,0-1.54-.12-2.27-.35-.72-.25-1.29-.57-1.71-.96l.56-1.17c.39.36.89.66,1.5.88.63.22,1.26.33,1.92.33.86,0,1.51-.15,1.94-.44.43-.29.65-.68.65-1.17,0-.36-.12-.65-.35-.88-.24-.22-.53-.39-.88-.5-.33-.13-.81-.26-1.44-.4-.78-.19-1.41-.38-1.9-.56-.47-.19-.89-.48-1.23-.88-.35-.39-.52-.92-.52-1.58,0-.55.15-1.05.44-1.5.29-.44.73-.8,1.33-1.06.59-.28,1.33-.42,2.21-.42.63,0,1.23.08,1.81.25.59.16,1.11.38,1.54.67l-.5,1.19c-.43-.28-.9-.48-1.4-.63-.49-.14-.97-.21-1.46-.21-.83,0-1.47.16-1.9.46-.42.31-.63.7-.63,1.19,0,.36.11.66.35.88.23.22.53.4.88.52.36.13.84.26,1.46.4.78.18,1.4.37,1.88.56.47.18.88.47,1.23.85.34.39.52.91.52,1.56,0,.54-.16,1.04-.46,1.5-.29.45-.74.8-1.35,1.06-.6.27-1.34.4-2.23.4Z" style="fill:#fff;"/><path d="m28.98,82.18c1.33,0,2.39.33,3.17.98.78.64,1.17,1.52,1.17,2.65s-.39,2.02-1.17,2.67c-.78.64-1.83.96-3.17.96h-2.58v3.15h-1.48v-10.4h4.06Zm-.06,5.96c.94,0,1.66-.2,2.15-.6.5-.4.75-.98.75-1.73s-.25-1.32-.75-1.73c-.49-.4-1.2-.6-2.15-.6h-2.52v4.67h2.52Z" style="fill:#fff;"/><path d="m50.74,92.7c-1.04,0-1.99-.23-2.83-.69-.85-.47-1.52-1.11-2-1.92-.47-.82-.71-1.73-.71-2.73s.23-1.9.71-2.71c.48-.8,1.15-1.44,2-1.9.84-.47,1.79-.71,2.83-.71s1.98.24,2.81.71c.84.46,1.51,1.09,1.98,1.9.48.81.73,1.71.73,2.71s-.24,1.93-.73,2.73c-.47.81-1.14,1.45-1.98,1.92-.83.46-1.77.69-2.81.69Zm0-1.33c.76,0,1.45-.17,2.06-.52.61-.34,1.09-.82,1.44-1.42.34-.61.52-1.3.52-2.06s-.18-1.42-.52-2.02c-.35-.61-.83-1.09-1.44-1.44-.61-.34-1.3-.52-2.06-.52s-1.46.18-2.08.52c-.61.35-1.09.83-1.44,1.44-.35.6-.52,1.27-.52,2.02s.17,1.45.52,2.06c.34.6.82,1.07,1.44,1.42.63.35,1.32.52,2.08.52Z" style="fill:#fff;"/><path d="m75.9,92.58l-2.25-3.19c-.28.02-.49.02-.65.02h-2.58v3.17h-1.48v-10.4h4.06c1.33,0,2.39.33,3.17.98.78.64,1.17,1.52,1.17,2.65,0,.81-.2,1.49-.6,2.06-.39.56-.95.96-1.69,1.21l2.46,3.5h-1.6Zm-2.96-4.42c.94,0,1.66-.2,2.15-.6.5-.42.75-1,.75-1.75s-.25-1.32-.75-1.73c-.49-.4-1.2-.6-2.15-.6h-2.52v4.69h2.52Z" style="fill:#fff;"/><path d="m92.21,83.47h-3.56v-1.29h8.6v1.29h-3.56v9.1h-1.48v-9.1Z" style="fill:#fff;"/><path d="m112.29,92.7c-.78,0-1.54-.12-2.27-.35-.72-.25-1.29-.57-1.71-.96l.56-1.17c.39.36.89.66,1.5.88.63.22,1.26.33,1.92.33.86,0,1.51-.15,1.94-.44.43-.29.65-.68.65-1.17,0-.36-.12-.65-.35-.88-.24-.22-.53-.39-.88-.5-.33-.13-.81-.26-1.44-.4-.78-.19-1.41-.38-1.9-.56-.47-.19-.89-.48-1.23-.88-.35-.39-.52-.92-.52-1.58,0-.55.15-1.05.44-1.5.29-.44.73-.8,1.33-1.06.59-.28,1.33-.42,2.21-.42.63,0,1.23.08,1.81.25.59.16,1.11.38,1.54.67l-.5,1.19c-.43-.28-.9-.48-1.4-.63-.49-.14-.97-.21-1.46-.21-.83,0-1.47.16-1.9.46-.42.31-.63.7-.63,1.19,0,.36.11.66.35.88.23.22.53.4.88.52.36.13.84.26,1.46.4.78.18,1.4.37,1.88.56.47.18.88.47,1.23.85.34.39.52.91.52,1.56,0,.54-.16,1.04-.46,1.5-.29.45-.74.8-1.35,1.06-.6.27-1.34.4-2.23.4Z" style="fill:#fff;"/><path d="m152.94,92.58l-.02-7.58-3.77,6.31h-.67l-3.77-6.25v7.52h-1.42v-10.4h1.21l4.35,7.31,4.27-7.31h1.21l.02,10.4h-1.42Z" style="fill:#fff;"/><path d="m174.52,89.97h-5.52l-1.15,2.6h-1.54l4.71-10.4h1.48l4.73,10.4h-1.56l-1.15-2.6Zm-.52-1.19l-2.25-5.08-2.23,5.08h4.48Z" style="fill:#fff;"/><path d="m196.13,92.58l-2.25-3.19c-.28.02-.49.02-.65.02h-2.58v3.17h-1.48v-10.4h4.06c1.33,0,2.39.33,3.17.98.78.64,1.17,1.52,1.17,2.65,0,.81-.2,1.49-.6,2.06-.39.56-.95.96-1.69,1.21l2.46,3.5h-1.6Zm-2.96-4.42c.94,0,1.66-.2,2.15-.6.5-.42.75-1,.75-1.75s-.25-1.32-.75-1.73c-.49-.4-1.2-.6-2.15-.6h-2.52v4.69h2.52Z" style="fill:#fff;"/><path d="m213.75,87.95l-1.9,1.94v2.69h-1.48v-10.4h1.48v5.81l5.65-5.81h1.69l-4.44,4.67,4.73,5.73h-1.73l-4-4.63Z" style="fill:#fff;"/><path d="m239,91.28v1.29h-7.54v-10.4h7.33v1.29h-5.85v3.19h5.21v1.27h-5.21v3.35h6.06Z" style="fill:#fff;"/><path d="m253.88,83.47h-3.56v-1.29h8.6v1.29h-3.56v9.1h-1.48v-9.1Z" style="fill:#fff;"/><path d="m273.97,92.7c-.78,0-1.54-.12-2.27-.35-.72-.25-1.29-.57-1.71-.96l.56-1.17c.39.36.89.66,1.5.88.63.22,1.26.33,1.92.33.86,0,1.51-.15,1.94-.44.43-.29.65-.68.65-1.17,0-.36-.12-.65-.35-.88-.24-.22-.53-.39-.88-.5-.33-.13-.81-.26-1.44-.4-.78-.19-1.41-.38-1.9-.56-.47-.19-.89-.48-1.23-.88-.35-.39-.52-.92-.52-1.58,0-.55.15-1.05.44-1.5.29-.44.73-.8,1.33-1.06.59-.28,1.33-.42,2.21-.42.63,0,1.23.08,1.81.25.59.16,1.11.38,1.54.67l-.5,1.19c-.43-.28-.9-.48-1.4-.63-.49-.14-.97-.21-1.46-.21-.83,0-1.47.16-1.9.46-.42.31-.63.7-.63,1.19,0,.36.11.66.35.88.23.22.53.4.88.52.36.13.84.26,1.46.4.78.18,1.4.37,1.88.56.47.18.88.47,1.23.85.34.39.52.91.52,1.56,0,.54-.16,1.04-.46,1.5-.29.45-.74.8-1.35,1.06-.6.27-1.34.4-2.23.4Z" style="fill:#fff;"/></g></g></g></svg>